# xmcd
#
# Track frame offsets: 
#        150
#        23192
#        41887
#        62115
#        78850
#        94941
#        114708
#        131188
#        145229
#        160885
#        173758
#        185452
#        201308
#        217662
#        235806
#        253488
#        271314
#        288741
#        304212
#        320561
#
# Disc length: 4538 seconds
#
# Revision: 0
# Processed by: cddbd v1.5.1PL2 Copyright (c) Steve Scherf et al.
# Submitted via: ExactAudioCopy v0.95a5
#
DISCID=3411b814
DTITLE=Ќовиков јлександр - лучшие песни
DYEAR=2005
DGENRE=Ballad
TTITLE0=вези мен€ извозчик
TTITLE1=когда мне было 20 лет
TTITLE2=шансоньетка
TTITLE3=улична€ красотка
TTITLE4=помнишь,девочка?
TTITLE5=гостинична€ истори€
TTITLE6=€ вышел родом из еврейского квартала
TTITLE7=катька
TTITLE8=девочка мне писала
TTITLE9=чулочек
TTITLE10=с красавицей в обнимку
TTITLE11=записки
TTITLE12=ожерелье магадана
TTITLE13=шлюха
TTITLE14=девочка-иголка
TTITLE15=город древний
TTITLE16=а на нарах
TTITLE17=бурлак 
TTITLE18=нина-ниночка
TTITLE19=освободилс€
EXTD=
EXTT0=
EXTT1=
EXTT2=
EXTT3=
EXTT4=
EXTT5=
EXTT6=
EXTT7=
EXTT8=
EXTT9=
EXTT10=
EXTT11=
EXTT12=
EXTT13=
EXTT14=
EXTT15=
EXTT16=
EXTT17=
EXTT18=
EXTT19=
PLAYORDER=
